<?xml version="1.0" encoding="utf-8"?>
<!-- Generator: Adobe Illustrator 15.1.0, SVG Export Plug-In  -->
<!DOCTYPE svg PUBLIC "-//W3C//DTD SVG 1.1//EN" "http://www.w3.org/Graphics/SVG/1.1/DTD/svg11.dtd" [
	<!ENTITY ns_flows "http://ns.adobe.com/Flows/1.0/">
]>
<svg version="1.1"
	 xmlns="http://www.w3.org/2000/svg" xmlns:xlink="http://www.w3.org/1999/xlink" xmlns:a="http://ns.adobe.com/AdobeSVGViewerExtensions/3.0/"
	 x="0px" y="0px" width="300px" height="300px" viewBox="-0.438 -36.248 300 300"
	 overflow="visible" enable-background="new -0.438 -36.248 300 300" xml:space="preserve">
<defs>
</defs>
<path fill="none" stroke="#C73434" stroke-width="2" stroke-linecap="round" stroke-linejoin="round" stroke-miterlimit="10" d="
	M216.373,212.729c10.662,0,35.543-14.219,35.543-35.543c10.663,0,10.663-21.328,0-21.328l-3.554-17.77
	c-28.436,0-28.436-10.664-31.989-14.219c-3.554,3.555-3.554,14.219-31.988,14.219l-3.557,17.77c-10.663,0-10.663,21.328,0,21.328
	C180.828,198.51,205.707,212.729,216.373,212.729z"/>
<path fill="none" stroke="#C73434" stroke-width="2" stroke-linecap="round" stroke-miterlimit="10" d="M258.815,160.87
	l3.764-26.336c0,0,3.557-35.545-46.206-35.545c-49.762,0-46.208,35.545-46.208,35.545l3.763,26.336"/>
<path fill="none" stroke="#C73434" stroke-width="2" stroke-linecap="round" stroke-miterlimit="10" d="M196.959,204.78
	l-43.887,13.314c-11.098,4.162-18.45,15.629-18.45,27.482v16.914h163.502v-16.914c0-11.854-7.354-23.32-18.454-27.482
	l-43.884-13.314"/>
<path fill="none" stroke="#C73434" stroke-width="2" stroke-linecap="round" stroke-miterlimit="10" d="M195.046,162.969
	c0-3.928,3.185-3.557,7.107-3.557c3.928,0,7.112-0.371,7.112,3.557"/>
<path fill="none" stroke="#C73434" stroke-width="2" stroke-linecap="round" stroke-miterlimit="10" d="M223.48,162.969
	c0-3.928,3.183-3.557,7.11-3.557c3.926,0,7.109-0.371,7.109,3.557"/>
<path fill="#FFFFFF" stroke="#C73434" stroke-width="2" stroke-linecap="round" stroke-miterlimit="10" d="M64.524,205.622
	l-45.073,12.475C8.352,222.256,1,232.868,1,244.719v17.771h163.503v-17.771c0-11.852-7.354-22.463-18.453-26.623l-45.195-12.475"/>
<path fill="none" stroke="#C73434" stroke-width="2" stroke-linecap="round" stroke-miterlimit="10" d="M61.425,162.979
	c0-3.926,3.184-3.555,7.107-3.555c3.926,0,7.111-0.371,7.111,3.555"/>
<path fill="none" stroke="#C73434" stroke-width="2" stroke-linecap="round" stroke-miterlimit="10" d="M89.858,162.979
	c0-3.926,3.185-3.555,7.109-3.555s7.11-0.371,7.11,3.555"/>
<path fill="none" stroke="#C73434" stroke-width="2" stroke-linecap="round" stroke-linejoin="round" stroke-miterlimit="10" d="
	M46.104,138.456v16.914c-10.664,0-9.56,21.816,1.103,21.816c0,21.326,24.88,35.543,35.544,35.543"/>
<path fill="none" stroke="#C73434" stroke-width="2" stroke-linecap="round" stroke-linejoin="round" stroke-miterlimit="10" d="
	M119.397,138.456v16.914c10.664,0,9.561,21.816-1.102,21.816c0,21.326-24.881,35.543-35.545,35.543"/>
<polygon fill="none" stroke="#C73434" stroke-width="2" stroke-linecap="round" stroke-linejoin="round" stroke-miterlimit="10" points="
	82.751,127.424 164.503,113.208 82.751,98.991 1,113.208 "/>
<path fill="none" stroke="#C73434" stroke-width="2" stroke-linecap="round" stroke-linejoin="round" stroke-miterlimit="10" d="
	M46.104,121.051v17.404c0,0,11.766,11.277,36.646,11.277s36.646-11.277,36.646-11.277v-17.404"/>
<line fill="none" stroke="#C73434" stroke-width="2" stroke-linecap="round" stroke-linejoin="round" stroke-miterlimit="10" x1="17.915" y1="116.182" x2="17.915" y2="141.276"/>
<polyline fill="none" stroke="#C73434" stroke-width="2" stroke-linecap="round" stroke-linejoin="round" stroke-miterlimit="10" points="
	17.915,141.276 9.457,189.198 29.189,189.198 17.915,141.276 "/>
<path fill="#FFFFFF" stroke="#C73434" stroke-width="2" stroke-linecap="round" stroke-linejoin="round" stroke-miterlimit="10" d="
	M212.273,68.862c0,2.355-1.909,4.266-4.266,4.266h-5.882V88.35l-19.711-15.223h-63.984c-2.354,0-4.266-1.91-4.266-4.266V13.923
	c0-3.382,1.691-5.074,4.266-5.074h89.577c2.576,0,4.266,1.692,4.266,5.074V68.862z"/>
<path fill="#FFFFFF" stroke="#C73434" stroke-width="2" stroke-linecap="round" stroke-miterlimit="10" d="M141.893,39.297
	c0,1.178,0.952,2.132,2.133,2.132c1.179,0,2.132-0.954,2.132-2.132c0-1.179-0.953-2.133-2.132-2.133
	C142.845,37.164,141.893,38.118,141.893,39.297z"/>
<circle fill="#FFFFFF" stroke="#C73434" stroke-width="2" stroke-linecap="round" stroke-miterlimit="10" cx="161.087" cy="39.297" r="2.132"/>
<path fill="#FFFFFF" stroke="#C73434" stroke-width="2" stroke-linecap="round" stroke-linejoin="round" stroke-miterlimit="10" d="
	M77.128,61.013c0,2.355,1.908,4.265,4.264,4.265h5.885v15.224l19.711-15.224h63.984c2.354,0,4.264-1.91,4.264-4.265V6.074
	c0-3.382-1.69-5.074-4.264-5.074h-89.58c-2.572,0-4.264,1.691-4.264,5.074V61.013z"/>
<line fill="none" stroke="#C73434" stroke-width="2" stroke-linecap="round" stroke-linejoin="round" stroke-miterlimit="10" x1="123.579" y1="52.282" x2="128.784" y2="52.282"/>
<line fill="none" stroke="#C73434" stroke-width="2" stroke-linecap="round" stroke-linejoin="round" stroke-miterlimit="10" x1="125.314" y1="55.752" x2="127.049" y2="55.752"/>
<path fill="none" stroke="#C73434" stroke-width="2" stroke-linecap="round" stroke-linejoin="round" stroke-miterlimit="10" d="
	M140.063,32.328c0-7.667-6.215-13.882-13.881-13.882c-7.668,0-13.882,6.216-13.882,13.882c0,6.465,4.426,11.883,10.41,13.427v3.057
	h6.941v-3.057C135.636,44.211,140.063,38.793,140.063,32.328z"/>
<line fill="none" stroke="#C73434" stroke-width="2" stroke-linecap="round" stroke-linejoin="round" stroke-miterlimit="10" x1="103.624" y1="31.46" x2="107.095" y2="31.46"/>
<line fill="none" stroke="#C73434" stroke-width="2" stroke-linecap="round" stroke-linejoin="round" stroke-miterlimit="10" x1="108.831" y1="15.844" x2="113.167" y2="20.182"/>
<line fill="none" stroke="#C73434" stroke-width="2" stroke-linecap="round" stroke-linejoin="round" stroke-miterlimit="10" x1="126.183" y1="10.638" x2="126.183" y2="14.108"/>
<line fill="none" stroke="#C73434" stroke-width="2" stroke-linecap="round" stroke-linejoin="round" stroke-miterlimit="10" x1="143.533" y1="15.844" x2="139.196" y2="20.182"/>
<line fill="none" stroke="#C73434" stroke-width="2" stroke-linecap="round" stroke-linejoin="round" stroke-miterlimit="10" x1="148.739" y1="31.46" x2="145.269" y2="31.46"/>
<path fill="none" stroke="#C73434" stroke-width="2" stroke-linejoin="round" stroke-miterlimit="10" d="M213.13,162.494
	c0,6.93-5.231,12.158-12.155,12.158c-6.933,0-12.158-5.229-12.158-12.158c0-3.845,2.779-7.735,6.632-7.735h13.261
	c2.305,0,4.421,2.119,4.421,4.422V162.494z"/>
<path fill="none" stroke="#C73434" stroke-width="2" stroke-linecap="round" stroke-linejoin="round" stroke-miterlimit="10" d="
	M219.761,161.39v-5.526c0-2.209-1.105-3.315-3.315-3.315s-3.315,1.106-3.315,3.315v5.526"/>
<path fill="none" stroke="#C73434" stroke-width="2" stroke-linecap="round" stroke-linejoin="round" stroke-miterlimit="10" d="
	M184.396,156.968c0-2.21,2.21-4.42,4.42-4.42"/>
<path fill="none" stroke="#C73434" stroke-width="2" stroke-linejoin="round" stroke-miterlimit="10" d="M219.761,162.494
	c0,6.93,5.231,12.158,12.155,12.158c6.933,0,12.158-5.229,12.158-12.158c0-3.845-2.779-7.735-6.632-7.735h-13.261
	c-2.305,0-4.421,2.119-4.421,4.422V162.494z"/>
<path fill="none" stroke="#C73434" stroke-width="2" stroke-linecap="round" stroke-linejoin="round" stroke-miterlimit="10" d="
	M248.494,156.968c0-2.21-2.21-4.42-4.42-4.42"/>
</svg>
