<?xml version="1.0" encoding="utf-8"?>
<!-- Generator: Adobe Illustrator 15.1.0, SVG Export Plug-In  -->
<!DOCTYPE svg PUBLIC "-//W3C//DTD SVG 1.1//EN" "http://www.w3.org/Graphics/SVG/1.1/DTD/svg11.dtd" [
	<!ENTITY ns_flows "http://ns.adobe.com/Flows/1.0/">
]>
<svg version="1.1"
	 xmlns="http://www.w3.org/2000/svg" xmlns:xlink="http://www.w3.org/1999/xlink" xmlns:a="http://ns.adobe.com/AdobeSVGViewerExtensions/3.0/"
	 x="0px" y="0px" width="300px" height="300px" viewBox="-1.413 -41.751 300 300"
	 overflow="visible" enable-background="new -1.413 -41.751 300 300" xml:space="preserve">
<defs>
</defs>
<path fill="#FFFFFF" stroke="#C73434" stroke-width="2" stroke-linecap="round" stroke-linejoin="round" stroke-miterlimit="10" d="
	M94.727,77.32l150.019,146.335c0.862,19.479,0.488,31.867-30.423,33.236L76.028,94.45"/>
<path fill="#FFFFFF" stroke="#C73434" stroke-width="2" stroke-linecap="round" stroke-miterlimit="10" d="M138.873,69.936
	c0,38.076-30.861,68.94-68.937,68.94C31.858,138.876,1,108.012,1,69.936C1,31.86,31.858,1,69.936,1
	C108.012,1,138.873,31.86,138.873,69.936z"/>
<polyline fill="#FFFFFF" stroke="#C73434" stroke-width="2" stroke-miterlimit="10" points="113.027,104.21 83.011,92.125 
	83.011,76.974 "/>
<polyline fill="#FFFFFF" stroke="#C73434" stroke-width="2" stroke-miterlimit="10" points="55.675,76.524 55.675,92.125 
	27.808,103.89 "/>
<path fill="#FFFFFF" stroke="#C73434" stroke-width="2" stroke-miterlimit="10" d="M94.105,52.368
	c0,16.227-10.966,29.388-24.484,29.388c-13.531,0-24.49-13.161-24.49-29.388c0-16.228,10.958-29.383,24.49-29.383
	C83.14,22.985,94.105,36.141,94.105,52.368z"/>
<path fill="#FFFFFF" stroke="#C73434" stroke-width="2" stroke-miterlimit="10" d="M93.875,48.55
	c-0.794,0.093-1.887,0.043-2.688,0.2c-7.974,1.538-13.09-1.354-17.486-9.041c-2.64,5.05-10.872,9.041-17.637,9.041
	c-3.337,0-7.454-0.835-10.327-2.335"/>
<path fill="#FFFFFF" stroke="#C73434" stroke-width="2" stroke-linecap="round" stroke-linejoin="round" stroke-miterlimit="10" d="
	M183.936,85.693L50.884,227.461c0,18.088,0.854,29.558,29.556,29.558l121.526-156.215"/>
<path fill="none" stroke="#C73434" stroke-width="2" stroke-linecap="round" stroke-linejoin="round" stroke-miterlimit="10" d="
	M295.775,37.464c-39.841-1.972-34.926,34.891-46.541,50.469c-12.31,16.492-38.301,20.944-54.794,8.642
	C140.962,56.693,236.663-21.649,295.775,37.464z"/>
<line fill="none" stroke="#C73434" stroke-width="2" stroke-linecap="round" stroke-linejoin="round" stroke-miterlimit="10" x1="187.569" y1="119.255" x2="169.499" y2="101.188"/>
</svg>
