<?xml version="1.0" encoding="utf-8"?>
<!-- Generator: Adobe Illustrator 15.1.0, SVG Export Plug-In  -->
<!DOCTYPE svg PUBLIC "-//W3C//DTD SVG 1.1//EN" "http://www.w3.org/Graphics/SVG/1.1/DTD/svg11.dtd" [
	<!ENTITY ns_flows "http://ns.adobe.com/Flows/1.0/">
]>
<svg version="1.1"
	 xmlns="http://www.w3.org/2000/svg" xmlns:xlink="http://www.w3.org/1999/xlink" xmlns:a="http://ns.adobe.com/AdobeSVGViewerExtensions/3.0/"
	 x="0px" y="0px" width="300px" height="300px" viewBox="0 -45.403 300 300"
	 overflow="visible" enable-background="new 0 -45.403 300 300" xml:space="preserve">
<defs>
</defs>
<path fill="#FFFFFF" stroke="#C73434" stroke-width="2" stroke-linecap="round" stroke-linejoin="round" stroke-miterlimit="10" d="
	M100.574,84.187l141.239,137.77c0.812,18.339,0.459,30.002-28.643,31.29L82.97,100.313"/>
<path fill="#FFFFFF" stroke="#C73434" stroke-width="2" stroke-linecap="round" stroke-miterlimit="10" d="M153.469,77.233
	c0,42.106-34.128,76.238-76.235,76.238C35.125,153.472,1,119.34,1,77.233C1,35.129,35.125,1,77.234,1
	C119.341,1,153.469,35.129,153.469,77.233z"/>
<polyline fill="#FFFFFF" stroke="#C73434" stroke-width="2" stroke-miterlimit="10" points="124.888,115.136 91.694,101.771 
	91.694,85.016 "/>
<polyline fill="#FFFFFF" stroke="#C73434" stroke-width="2" stroke-miterlimit="10" points="61.463,84.52 61.463,101.771 
	30.646,114.781 "/>
<path fill="#FFFFFF" stroke="#C73434" stroke-width="2" stroke-miterlimit="10" d="M103.962,57.806
	c0,17.945-12.127,32.499-27.076,32.499c-14.964,0-27.082-14.554-27.082-32.499c0-17.944,12.118-32.492,27.082-32.492
	C91.835,25.313,103.962,39.861,103.962,57.806z"/>
<path fill="#FFFFFF" stroke="#C73434" stroke-width="2" stroke-miterlimit="10" d="M103.708,53.584
	c-0.878,0.102-2.087,0.047-2.973,0.22c-8.817,1.701-14.477-1.496-19.338-9.997c-2.919,5.584-12.022,9.997-19.504,9.997
	c-3.691,0-8.244-0.923-11.42-2.581"/>
<path fill="#FFFFFF" stroke="#C73434" stroke-width="2" stroke-linecap="round" stroke-linejoin="round" stroke-miterlimit="10" d="
	M193.561,92.068L68.298,225.539c0,17.028,0.804,27.827,27.826,27.827l114.414-147.071"/>
<path fill="none" stroke="#C73434" stroke-width="2" stroke-linecap="round" stroke-linejoin="round" stroke-miterlimit="10" d="
	M298.855,46.662c-37.509-1.856-32.881,32.849-43.816,47.515c-11.59,15.527-36.06,19.719-51.588,8.136
	C153.103,64.767,243.203-8.99,298.855,46.662z"/>
<line fill="none" stroke="#C73434" stroke-width="2" stroke-linecap="round" stroke-linejoin="round" stroke-miterlimit="10" x1="196.982" y1="123.666" x2="179.97" y2="106.656"/>
<circle fill="none" stroke="#C73434" stroke-width="2" stroke-linecap="round" stroke-linejoin="round" stroke-miterlimit="10" cx="77.527" cy="76.412" r="67.557"/>
</svg>
