<?xml version="1.0" encoding="utf-8"?>
<!-- Generator: Adobe Illustrator 15.1.0, SVG Export Plug-In  -->
<!DOCTYPE svg PUBLIC "-//W3C//DTD SVG 1.1//EN" "http://www.w3.org/Graphics/SVG/1.1/DTD/svg11.dtd" [
	<!ENTITY ns_flows "http://ns.adobe.com/Flows/1.0/">
]>
<svg version="1.1"
	 xmlns="http://www.w3.org/2000/svg" xmlns:xlink="http://www.w3.org/1999/xlink" xmlns:a="http://ns.adobe.com/AdobeSVGViewerExtensions/3.0/"
	 x="0px" y="0px" width="300px" height="300px" viewBox="0 -36.248 300 300"
	 overflow="visible" enable-background="new 0 -36.248 300 300" xml:space="preserve">
<defs>
</defs>
<path fill="#FFFFFF" stroke="#C73434" stroke-width="2" stroke-linecap="round" stroke-miterlimit="10" d="M217.195,208.35
	l-36.736,10.167c-9.048,3.392-15.039,12.04-15.039,21.699v14.485h133.262v-14.485c0-9.659-5.993-18.308-15.04-21.699l-36.836-10.167
	"/>
<path fill="none" stroke="#C73434" stroke-width="2" stroke-linecap="round" stroke-miterlimit="10" d="M214.668,173.594
	c0-3.199,2.596-2.897,5.793-2.897c3.199,0,5.796-0.302,5.796,2.897"/>
<path fill="none" stroke="#C73434" stroke-width="2" stroke-linecap="round" stroke-miterlimit="10" d="M237.844,173.594
	c0-3.199,2.596-2.897,5.795-2.897c3.198,0,5.795-0.302,5.795,2.897"/>
<path fill="#FFFFFF" stroke="#C73434" stroke-width="2" stroke-linecap="round" stroke-linejoin="round" stroke-miterlimit="10" d="
	M202.182,153.607v13.785c-8.691,0-7.791,17.781,0.899,17.781c0,17.382,20.277,28.971,28.969,28.971"/>
<path fill="none" stroke="#C73434" stroke-width="2" stroke-linecap="round" stroke-linejoin="round" stroke-miterlimit="10" d="
	M261.919,153.607v13.785c8.691,0,7.792,17.781-0.897,17.781c0,17.382-20.279,28.971-28.972,28.971"/>
<path fill="#FFFFFF" stroke="#C73434" stroke-width="2" stroke-linecap="round" stroke-linejoin="round" stroke-miterlimit="10" d="
	M202.182,139.421v14.186c0,0,9.589,9.19,29.868,9.19s29.869-9.19,29.869-9.19v-14.186"/>
<line fill="none" stroke="#C73434" stroke-width="2" stroke-linecap="round" stroke-linejoin="round" stroke-miterlimit="10" x1="179.205" y1="135.453" x2="179.205" y2="155.905"/>
<polyline fill="#FFFFFF" stroke="#C73434" stroke-width="2" stroke-linecap="round" stroke-linejoin="round" stroke-miterlimit="10" points="
	179.205,155.905 172.312,194.964 188.396,194.964 179.205,155.905 "/>
<polygon fill="#FFFFFF" stroke="#C73434" stroke-width="2" stroke-linecap="round" stroke-linejoin="round" stroke-miterlimit="10" points="
	232.05,144.616 298.682,133.028 232.05,121.44 165.42,133.028 "/>
<path fill="#FFFFFF" stroke="#C73434" stroke-width="2" stroke-linecap="round" stroke-miterlimit="10" d="M52.775,209.068
	l-36.736,10.167C6.991,222.625,1,231.274,1,240.933v14.485h133.263v-14.485c0-9.659-5.993-18.308-15.041-21.698l-36.836-10.167"/>
<path fill="none" stroke="#C73434" stroke-width="2" stroke-linecap="round" stroke-miterlimit="10" d="M50.248,174.312
	c0-3.2,2.596-2.898,5.793-2.898c3.199,0,5.796-0.302,5.796,2.898"/>
<path fill="none" stroke="#C73434" stroke-width="2" stroke-linecap="round" stroke-miterlimit="10" d="M73.424,174.312
	c0-3.2,2.596-2.898,5.795-2.898c3.198,0,5.796-0.302,5.796,2.898"/>
<path fill="#FFFFFF" stroke="#C73434" stroke-width="2" stroke-linecap="round" stroke-linejoin="round" stroke-miterlimit="10" d="
	M37.762,154.324v13.785c-8.691,0-7.79,17.781,0.899,17.781c0,17.383,20.277,28.971,28.969,28.971"/>
<path fill="none" stroke="#C73434" stroke-width="2" stroke-linecap="round" stroke-linejoin="round" stroke-miterlimit="10" d="
	M97.499,154.324v13.785c8.691,0,7.792,17.781-0.897,17.781c0,17.383-20.279,28.971-28.972,28.971"/>
<path fill="#FFFFFF" stroke="#C73434" stroke-width="2" stroke-linecap="round" stroke-linejoin="round" stroke-miterlimit="10" d="
	M37.762,140.138v14.186c0,0,9.589,9.19,29.868,9.19s29.869-9.19,29.869-9.19v-14.186"/>
<line fill="none" stroke="#C73434" stroke-width="2" stroke-linecap="round" stroke-linejoin="round" stroke-miterlimit="10" x1="14.785" y1="136.169" x2="14.785" y2="156.622"/>
<polyline fill="#FFFFFF" stroke="#C73434" stroke-width="2" stroke-linecap="round" stroke-linejoin="round" stroke-miterlimit="10" points="
	14.785,156.622 7.893,195.681 23.976,195.681 14.785,156.622 "/>
<polygon fill="#FFFFFF" stroke="#C73434" stroke-width="2" stroke-linecap="round" stroke-linejoin="round" stroke-miterlimit="10" points="
	67.63,145.333 134.263,133.746 67.63,122.158 1,133.746 "/>
<rect x="115.227" y="132.929" fill="#FFFFFF" width="69.667" height="60.49"/>
<path fill="#FFFFFF" stroke="#C73434" stroke-width="2" stroke-linecap="round" stroke-miterlimit="10" d="M132.072,205.883
	l-45.073,12.475c-11.1,4.16-18.451,14.771-18.451,26.623v17.771H232.05v-17.771c0-11.852-7.354-22.463-18.453-26.623l-45.195-12.475
	"/>
<path fill="none" stroke="#C73434" stroke-width="2" stroke-linecap="round" stroke-miterlimit="10" d="M128.972,163.241
	c0-3.926,3.184-3.555,7.107-3.555c3.926,0,7.111-0.371,7.111,3.555"/>
<path fill="none" stroke="#C73434" stroke-width="2" stroke-linecap="round" stroke-miterlimit="10" d="M157.406,163.241
	c0-3.926,3.185-3.555,7.109-3.555s7.11-0.371,7.11,3.555"/>
<path fill="#FFFFFF" stroke="#C73434" stroke-width="2" stroke-linecap="round" stroke-linejoin="round" stroke-miterlimit="10" d="
	M113.651,138.717v16.914c-10.663,0-9.559,21.816,1.104,21.816c0,21.326,24.879,35.543,35.543,35.543"/>
<path fill="#FFFFFF" stroke="#C73434" stroke-width="2" stroke-linecap="round" stroke-linejoin="round" stroke-miterlimit="10" d="
	M186.945,138.717v16.914c10.663,0,9.56,21.816-1.103,21.816c0,21.326-24.881,35.543-35.545,35.543"/>
<path fill="#FFFFFF" stroke="#C73434" stroke-width="2" stroke-linecap="round" stroke-linejoin="round" stroke-miterlimit="10" d="
	M113.651,121.313v17.404c0,0,11.766,11.277,36.646,11.277s36.647-11.277,36.647-11.277v-17.404"/>
<line fill="none" stroke="#C73434" stroke-width="2" stroke-linecap="round" stroke-linejoin="round" stroke-miterlimit="10" x1="85.462" y1="116.444" x2="85.462" y2="141.538"/>
<polyline fill="#FFFFFF" stroke="#C73434" stroke-width="2" stroke-linecap="round" stroke-linejoin="round" stroke-miterlimit="10" points="
	85.462,141.538 77.005,189.459 96.737,189.459 85.462,141.538 "/>
<path fill="#FFFFFF" stroke="#C73434" stroke-width="2" stroke-linecap="round" stroke-linejoin="round" stroke-miterlimit="10" d="
	M217.573,68.862c0,2.355-1.909,4.266-4.266,4.266h-5.882V88.35l-19.711-15.223H123.73c-2.354,0-4.266-1.91-4.266-4.266V13.923
	c0-3.382,1.691-5.074,4.266-5.074h89.577c2.576,0,4.266,1.692,4.266,5.074V68.862z"/>
<path fill="#FFFFFF" stroke="#C73434" stroke-width="2" stroke-linecap="round" stroke-miterlimit="10" d="M147.192,39.297
	c0,1.178,0.952,2.132,2.133,2.132c1.179,0,2.132-0.954,2.132-2.132c0-1.179-0.953-2.133-2.132-2.133
	C148.145,37.164,147.192,38.118,147.192,39.297z"/>
<circle fill="#FFFFFF" stroke="#C73434" stroke-width="2" stroke-linecap="round" stroke-miterlimit="10" cx="166.387" cy="39.297" r="2.132"/>
<path fill="#FFFFFF" stroke="#C73434" stroke-width="2" stroke-linecap="round" stroke-linejoin="round" stroke-miterlimit="10" d="
	M82.428,61.013c0,2.355,1.908,4.265,4.264,4.265h5.885v15.224l19.711-15.224h63.984c2.354,0,4.264-1.91,4.264-4.265V6.074
	c0-3.382-1.69-5.074-4.264-5.074h-89.58c-2.572,0-4.264,1.691-4.264,5.074V61.013z"/>
<line fill="none" stroke="#C73434" stroke-width="2" stroke-linecap="round" stroke-linejoin="round" stroke-miterlimit="10" x1="128.879" y1="52.282" x2="134.084" y2="52.282"/>
<line fill="none" stroke="#C73434" stroke-width="2" stroke-linecap="round" stroke-linejoin="round" stroke-miterlimit="10" x1="130.614" y1="55.752" x2="132.349" y2="55.752"/>
<path fill="none" stroke="#C73434" stroke-width="2" stroke-linecap="round" stroke-linejoin="round" stroke-miterlimit="10" d="
	M145.363,32.328c0-7.667-6.215-13.882-13.881-13.882c-7.668,0-13.882,6.216-13.882,13.882c0,6.465,4.426,11.883,10.41,13.427v3.057
	h6.941v-3.057C140.936,44.211,145.363,38.793,145.363,32.328z"/>
<line fill="none" stroke="#C73434" stroke-width="2" stroke-linecap="round" stroke-linejoin="round" stroke-miterlimit="10" x1="108.924" y1="31.46" x2="112.395" y2="31.46"/>
<line fill="none" stroke="#C73434" stroke-width="2" stroke-linecap="round" stroke-linejoin="round" stroke-miterlimit="10" x1="114.131" y1="15.844" x2="118.467" y2="20.182"/>
<line fill="none" stroke="#C73434" stroke-width="2" stroke-linecap="round" stroke-linejoin="round" stroke-miterlimit="10" x1="131.482" y1="10.638" x2="131.482" y2="14.108"/>
<line fill="none" stroke="#C73434" stroke-width="2" stroke-linecap="round" stroke-linejoin="round" stroke-miterlimit="10" x1="148.833" y1="15.844" x2="144.496" y2="20.182"/>
<line fill="none" stroke="#C73434" stroke-width="2" stroke-linecap="round" stroke-linejoin="round" stroke-miterlimit="10" x1="154.039" y1="31.46" x2="150.568" y2="31.46"/>
<polygon fill="#FFFFFF" stroke="#C73434" stroke-width="2" stroke-linecap="round" stroke-linejoin="round" stroke-miterlimit="10" points="
	150.298,127.686 232.05,113.469 150.298,99.252 68.548,113.469 "/>
</svg>
