<?xml version="1.0" encoding="utf-8"?>
<!-- Generator: Adobe Illustrator 15.1.0, SVG Export Plug-In  -->
<!DOCTYPE svg PUBLIC "-//W3C//DTD SVG 1.1//EN" "http://www.w3.org/Graphics/SVG/1.1/DTD/svg11.dtd" [
	<!ENTITY ns_flows "http://ns.adobe.com/Flows/1.0/">
]>
<svg version="1.1"
	 xmlns="http://www.w3.org/2000/svg" xmlns:xlink="http://www.w3.org/1999/xlink" xmlns:a="http://ns.adobe.com/AdobeSVGViewerExtensions/3.0/"
	 x="0px" y="0px" width="300px" height="300px" viewBox="0 -13.907 300 300"
	 overflow="visible" enable-background="new 0 -13.907 300 300" xml:space="preserve">
<defs>
</defs>
<line fill="none" stroke="#C73434" stroke-width="2" stroke-linecap="round" stroke-linejoin="round" stroke-miterlimit="10" x1="43.455" y1="184.972" x2="170.819" y2="184.972"/>
<line fill="none" stroke="#C73434" stroke-width="2" stroke-linecap="round" stroke-linejoin="round" stroke-miterlimit="10" x1="103.6" y1="163.744" x2="103.6" y2="184.972"/>
<line fill="none" stroke="#C73434" stroke-width="2" stroke-miterlimit="10" x1="1" y1="128.365" x2="206.199" y2="128.365"/>
<path fill="none" stroke="#C73434" stroke-width="2" stroke-linecap="round" stroke-linejoin="round" stroke-miterlimit="10" d="
	M206.199,149.593c0,7.784-6.368,14.151-14.151,14.151H15.151C7.367,163.744,1,157.377,1,149.593V15.151C1,7.367,7.367,1,15.151,1
	h176.896c7.783,0,14.151,6.367,14.151,14.151V149.593z"/>
<circle fill="none" stroke="#C73434" stroke-width="2" stroke-miterlimit="10" cx="103.6" cy="146.055" r="3.538"/>
<path fill="none" stroke="#C73434" stroke-width="2" stroke-linecap="round" stroke-linejoin="round" stroke-miterlimit="10" d="
	M206.199,255.84c0,6.85-5.604,12.454-12.453,12.454h-4.671c-6.85,0-12.454-5.604-12.454-12.454v-20.237
	c0-6.85,5.604-12.453,12.454-12.453h4.671c6.849,0,12.453,5.604,12.453,12.453V255.84z"/>
<path fill="none" stroke="#C73434" stroke-width="2" stroke-linecap="round" stroke-linejoin="round" stroke-miterlimit="10" d="
	M193.746,238.716c0,1.285-1.051,2.335-2.336,2.335l0,0c-1.284,0-2.335-1.05-2.335-2.335v-4.67c0-1.284,1.051-2.335,2.335-2.335l0,0
	c1.285,0,2.336,1.051,2.336,2.335V238.716z"/>
<path fill="none" stroke="#C73434" stroke-width="2" stroke-linecap="round" stroke-linejoin="round" stroke-miterlimit="10" d="
	M161.725,243.65c0-4.56-3.731-8.29-8.288-8.29H53.974c-4.559,0-8.289,3.73-8.289,8.29v33.153c0,4.559,3.73,8.289,8.289,8.289h99.463
	c4.557,0,8.288-3.73,8.288-8.289V243.65z"/>
<path fill="none" stroke="#C73434" stroke-width="2" stroke-linecap="round" stroke-linejoin="round" stroke-miterlimit="10" d="
	M62.262,235.36V225c0-8.288,6.217-14.505,14.505-14.505h70.453c24.865,0,24.865-33.154,0-33.154h-33.155
	c-6.215,0-10.36-4.144-10.36-10.36v-2.072"/>
<line fill="none" stroke="#C73434" stroke-width="2" stroke-linecap="square" stroke-linejoin="round" stroke-miterlimit="10" x1="70.55" y1="276.804" x2="136.858" y2="276.804"/>
<polygon fill="#C73434" points="60.189,245.722 56.046,245.722 56.046,249.867 60.189,249.867 60.189,245.722 "/>
<polygon fill="#C73434" points="60.189,254.01 56.046,254.01 56.046,258.154 60.189,258.154 60.189,254.01 "/>
<polygon fill="#C73434" points="60.189,262.299 56.046,262.299 56.046,266.444 60.189,266.444 60.189,262.299 "/>
<polygon fill="#C73434" points="68.479,245.722 64.334,245.722 64.334,249.867 68.479,249.867 68.479,245.722 "/>
<polygon fill="#C73434" points="68.479,254.01 64.334,254.01 64.334,258.154 68.479,258.154 68.479,254.01 "/>
<polygon fill="#C73434" points="68.479,262.299 64.334,262.299 64.334,266.444 68.479,266.444 68.479,262.299 "/>
<polygon fill="#C73434" points="76.767,245.722 72.622,245.722 72.622,249.867 76.767,249.867 76.767,245.722 "/>
<polygon fill="#C73434" points="76.767,254.01 72.622,254.01 72.622,258.154 76.767,258.154 76.767,254.01 "/>
<polygon fill="#C73434" points="76.767,262.299 72.622,262.299 72.622,266.444 76.767,266.444 76.767,262.299 "/>
<polygon fill="#C73434" points="85.055,245.722 80.912,245.722 80.912,249.867 85.055,249.867 85.055,245.722 "/>
<polygon fill="#C73434" points="85.055,254.01 80.912,254.01 80.912,258.154 85.055,258.154 85.055,254.01 "/>
<polygon fill="#C73434" points="85.055,262.299 80.912,262.299 80.912,266.444 85.055,266.444 85.055,262.299 "/>
<polygon fill="#C73434" points="93.344,245.722 89.199,245.722 89.199,249.867 93.344,249.867 93.344,245.722 "/>
<polygon fill="#C73434" points="93.344,254.01 89.199,254.01 89.199,258.154 93.344,258.154 93.344,254.01 "/>
<polygon fill="#C73434" points="93.344,262.299 89.199,262.299 89.199,266.444 93.344,266.444 93.344,262.299 "/>
<polygon fill="#C73434" points="101.633,245.722 97.488,245.722 97.488,249.867 101.633,249.867 101.633,245.722 "/>
<polygon fill="#C73434" points="101.633,254.01 97.488,254.01 97.488,258.154 101.633,258.154 101.633,254.01 "/>
<polygon fill="#C73434" points="101.633,262.299 97.488,262.299 97.488,266.444 101.633,266.444 101.633,262.299 "/>
<polygon fill="#C73434" points="109.92,245.722 105.777,245.722 105.777,249.867 109.92,249.867 109.92,245.722 "/>
<polygon fill="#C73434" points="109.92,254.01 105.777,254.01 105.777,258.154 109.92,258.154 109.92,254.01 "/>
<polygon fill="#C73434" points="109.92,262.299 105.777,262.299 105.777,266.444 109.92,266.444 109.92,262.299 "/>
<polygon fill="#C73434" points="118.21,245.722 114.064,245.722 114.064,249.867 118.21,249.867 118.21,245.722 "/>
<polygon fill="#C73434" points="118.21,254.01 114.064,254.01 114.064,258.154 118.21,258.154 118.21,254.01 "/>
<polygon fill="#C73434" points="118.21,262.299 114.064,262.299 114.064,266.444 118.21,266.444 118.21,262.299 "/>
<polygon fill="#C73434" points="126.498,245.722 122.354,245.722 122.354,249.867 126.498,249.867 126.498,245.722 "/>
<polygon fill="#C73434" points="126.498,254.01 122.354,254.01 122.354,258.154 126.498,258.154 126.498,254.01 "/>
<polygon fill="#C73434" points="126.498,262.299 122.354,262.299 122.354,266.444 126.498,266.444 126.498,262.299 "/>
<polygon fill="#C73434" points="134.786,245.722 130.642,245.722 130.642,249.867 134.786,249.867 134.786,245.722 "/>
<polygon fill="#C73434" points="134.786,254.01 130.642,254.01 130.642,258.154 134.786,258.154 134.786,254.01 "/>
<polygon fill="#C73434" points="134.786,262.299 130.642,262.299 130.642,266.444 134.786,266.444 134.786,262.299 "/>
<polygon fill="#C73434" points="143.075,245.722 138.931,245.722 138.931,249.867 143.075,249.867 143.075,245.722 "/>
<polygon fill="#C73434" points="143.075,254.01 138.931,254.01 138.931,258.154 143.075,258.154 143.075,254.01 "/>
<polygon fill="#C73434" points="143.075,262.299 138.931,262.299 138.931,266.444 143.075,266.444 143.075,262.299 "/>
<polygon fill="#C73434" points="151.364,245.722 147.22,245.722 147.22,249.867 151.364,249.867 151.364,245.722 "/>
<polygon fill="#C73434" points="151.364,254.01 147.22,254.01 147.22,258.154 151.364,258.154 151.364,254.01 "/>
<polygon fill="#C73434" points="151.364,262.299 147.22,262.299 147.22,266.444 151.364,266.444 151.364,262.299 "/>
<path fill="#FFFFFF" stroke="#C73434" stroke-width="2" stroke-linecap="round" stroke-linejoin="round" stroke-miterlimit="10" d="
	M281.694,120.956h4.723c6.576,0,11.019,4.723,11.019,11.019c0,6.297-4.442,11.02-11.019,11.02h-4.723"/>
<path fill="#FFFFFF" stroke="#C73434" stroke-width="2" stroke-linecap="round" stroke-linejoin="round" stroke-miterlimit="10" d="
	M281.694,157.161c0,4.624-3.486,7.87-7.87,7.87h-34.632c-4.383,0-7.87-3.485-7.87-7.87V114.66h50.372V157.161z"/>
<path fill="#FFFFFF" stroke="#C73434" stroke-width="2" stroke-linecap="round" stroke-linejoin="round" stroke-miterlimit="10" d="
	M282.66,73.986c4.099,6.249-1.971,9.674-3.385,13.026c-1.498,3.553-0.04,6.955,3.511,8.45
	C294.3,100.318,297.726,77.633,282.66,73.986z"/>
<line fill="#FFFFFF" stroke="#C73434" stroke-width="2" stroke-linecap="round" stroke-linejoin="round" stroke-miterlimit="10" x1="270.529" y1="114.66" x2="281.48" y2="94.766"/>
<line fill="#FFFFFF" stroke="#C73434" stroke-width="2" stroke-linecap="round" stroke-linejoin="round" stroke-miterlimit="10" x1="285.71" y1="96.143" x2="278.69" y2="114.66"/>
<polygon fill="#FFFFFF" stroke="#C73434" stroke-width="2" stroke-linecap="round" stroke-linejoin="round" stroke-miterlimit="10" points="
	247.063,114.66 234.472,114.66 228.175,102.067 226.601,89.475 237.619,95.771 "/>
<line fill="#FFFFFF" stroke="#C73434" stroke-width="2" stroke-linecap="round" stroke-linejoin="round" stroke-miterlimit="10" x1="228.175" y1="102.067" x2="237.619" y2="95.771"/>
<rect x="250.213" y="73.733" fill="#FFFFFF" stroke="#C73434" stroke-width="2" stroke-linecap="round" stroke-linejoin="round" stroke-miterlimit="10" width="18.889" height="40.927"/>
<line fill="#FFFFFF" stroke="#C73434" stroke-width="2" stroke-linecap="round" stroke-linejoin="round" stroke-miterlimit="10" x1="269.102" y1="83.178" x2="259.657" y2="83.178"/>
<line fill="#FFFFFF" stroke="#C73434" stroke-width="2" stroke-linecap="round" stroke-linejoin="round" stroke-miterlimit="10" x1="269.102" y1="89.475" x2="262.805" y2="89.475"/>
<line fill="#FFFFFF" stroke="#C73434" stroke-width="2" stroke-linecap="round" stroke-linejoin="round" stroke-miterlimit="10" x1="269.102" y1="95.771" x2="259.657" y2="95.771"/>
<line fill="#FFFFFF" stroke="#C73434" stroke-width="2" stroke-linecap="round" stroke-linejoin="round" stroke-miterlimit="10" x1="269.102" y1="105.216" x2="262.805" y2="105.216"/>
</svg>
