<?xml version="1.0" encoding="utf-8"?>
<!-- Generator: Adobe Illustrator 15.1.0, SVG Export Plug-In  -->
<!DOCTYPE svg PUBLIC "-//W3C//DTD SVG 1.1//EN" "http://www.w3.org/Graphics/SVG/1.1/DTD/svg11.dtd" [
	<!ENTITY ns_flows "http://ns.adobe.com/Flows/1.0/">
]>
<svg version="1.1"
	 xmlns="http://www.w3.org/2000/svg" xmlns:xlink="http://www.w3.org/1999/xlink" xmlns:a="http://ns.adobe.com/AdobeSVGViewerExtensions/3.0/"
	 x="0px" y="0px" width="300px" height="300px" viewBox="-0.513 -19.816 300 300"
	 overflow="visible" enable-background="new -0.513 -19.816 300 300" xml:space="preserve">
<defs>
</defs>
<rect x="179.021" y="1" fill="none" stroke="#C73434" stroke-width="2" stroke-linecap="round" stroke-linejoin="round" stroke-miterlimit="10" width="118.954" height="181.561"/>
<rect x="216.587" y="38.564" fill="none" stroke="#C73434" stroke-width="2" stroke-linecap="round" stroke-linejoin="round" stroke-miterlimit="10" width="50.086" height="25.043"/>
<path fill="none" stroke="#C73434" stroke-width="2" stroke-linecap="round" stroke-linejoin="round" stroke-miterlimit="10" d="
	M179.021,1H160.24c-3.442,0-6.261,2.818-6.261,6.261V176.3c0,3.442,2.818,6.261,6.261,6.261h18.781"/>
<path fill="#FFFFFF" stroke="#C73434" stroke-width="2" stroke-linecap="round" stroke-linejoin="round" stroke-miterlimit="10" d="
	M98.262,124.363c0-16.934,41.622-30.661,97.262-30.661v144.536c-55.64,0-97.262,13.725-97.262,30.658
	c0-16.934-41.633-30.658-97.262-30.658V93.702C56.629,93.702,98.262,107.43,98.262,124.363z"/>
<line fill="#FFFFFF" stroke="#C73434" stroke-width="2" stroke-linecap="round" stroke-linejoin="round" stroke-miterlimit="10" x1="98.262" y1="124.363" x2="98.262" y2="268.896"/>
<path fill="#FFFFFF" stroke="#C73434" stroke-width="2" stroke-linecap="round" stroke-linejoin="round" stroke-miterlimit="10" d="
	M76.361,143.981c-14.105-5.393-34.044-9.314-56.938-10.856"/>
<path fill="#FFFFFF" stroke="#C73434" stroke-width="2" stroke-linecap="round" stroke-linejoin="round" stroke-miterlimit="10" d="
	M76.361,170.262c-14.105-5.395-34.044-9.315-56.938-10.863"/>
<path fill="#FFFFFF" stroke="#C73434" stroke-width="2" stroke-linecap="round" stroke-linejoin="round" stroke-miterlimit="10" d="
	M76.361,196.541c-14.105-5.394-34.044-9.315-56.938-10.858"/>
<path fill="#FFFFFF" stroke="#C73434" stroke-width="2" stroke-linecap="round" stroke-linejoin="round" stroke-miterlimit="10" d="
	M76.361,222.816c-14.105-5.393-34.044-9.311-56.938-10.857"/>
<path fill="#FFFFFF" stroke="#C73434" stroke-width="2" stroke-linecap="round" stroke-linejoin="round" stroke-miterlimit="10" d="
	M120.158,196.541c14.115-5.394,34.048-9.315,56.939-10.858"/>
<path fill="#FFFFFF" stroke="#C73434" stroke-width="2" stroke-linecap="round" stroke-linejoin="round" stroke-miterlimit="10" d="
	M120.158,222.816c14.115-5.393,34.048-9.311,56.939-10.857"/>
<polyline fill="#FFFFFF" stroke="#C73434" stroke-width="2" stroke-miterlimit="10" points="174.682,95.452 174.682,167.74 
	157.313,150.371 139.945,167.74 139.945,100.109 "/>
<polygon fill="none" stroke="#C73434" stroke-width="2" stroke-linecap="round" stroke-linejoin="round" stroke-miterlimit="10" points="
	216.369,279.184 192.922,266.157 216.369,253.131 294.544,253.131 294.542,279.182 "/>
<line fill="none" stroke="#C73434" stroke-width="2" stroke-linejoin="round" stroke-miterlimit="10" x1="273.7" y1="253.131" x2="273.7" y2="279.18"/>
<line fill="none" stroke="#C73434" stroke-width="2" stroke-linecap="round" stroke-linejoin="round" stroke-miterlimit="10" x1="216.369" y1="253.131" x2="216.369" y2="279.184"/>
</svg>
