<?xml version="1.0" encoding="utf-8"?>
<!-- Generator: Adobe Illustrator 15.1.0, SVG Export Plug-In . SVG Version: 6.00 Build 0)  -->
<!DOCTYPE svg PUBLIC "-//W3C//DTD SVG 1.1//EN" "http://www.w3.org/Graphics/SVG/1.1/DTD/svg11.dtd">
<svg version="1.1" id="Ebene_1" xmlns="http://www.w3.org/2000/svg" xmlns:xlink="http://www.w3.org/1999/xlink" x="0px" y="0px"
	 width="65.069px" height="28px" viewBox="0 0 65.069 28" enable-background="new 0 0 65.069 28" xml:space="preserve">
<g>
	<path fill="#FFFFFF" d="M11.16,21.235v-9.54c0-0.52-0.075-0.955-0.225-1.305c-0.15-0.35-0.345-0.634-0.585-0.855
		C10.11,9.315,9.835,9.16,9.525,9.07S8.91,8.935,8.61,8.935c-0.3,0-0.6,0.05-0.9,0.15S7.14,9.34,6.9,9.55
		c-0.24,0.21-0.435,0.495-0.585,0.855s-0.225,0.791-0.225,1.29v9.54h-3.9v-21.36h3.9v7.17c0.52-0.54,1.1-0.945,1.74-1.215
		c0.64-0.27,1.31-0.405,2.01-0.405c0.86,0,1.615,0.14,2.265,0.42c0.65,0.28,1.195,0.675,1.635,1.185
		c0.439,0.51,0.77,1.115,0.99,1.815c0.219,0.701,0.329,1.46,0.329,2.28v10.11H11.16z"/>
	<path fill="#FFFFFF" d="M16.77,26.574v-2.609h18.06v2.609H16.77z"/>
	<path fill="#FFFFFF" d="M45.359,21.235v-1.47c-0.54,0.6-1.11,1.025-1.71,1.275c-0.601,0.25-1.32,0.375-2.16,0.375
		c-0.761,0-1.48-0.125-2.16-0.375c-0.68-0.25-1.24-0.595-1.68-1.035c-0.4-0.38-0.705-0.83-0.915-1.35
		c-0.21-0.52-0.365-1.07-0.465-1.65c-0.101-0.58-0.16-1.18-0.181-1.8c-0.02-0.62-0.029-1.22-0.029-1.8
		c0-0.58,0.01-1.175,0.029-1.785c0.021-0.609,0.08-1.205,0.181-1.785c0.1-0.58,0.255-1.125,0.465-1.635
		c0.21-0.51,0.515-0.964,0.915-1.365c0.439-0.44,0.994-0.785,1.665-1.035c0.67-0.25,1.385-0.375,2.145-0.375
		c0.8,0,1.505,0.115,2.115,0.345s1.175,0.635,1.695,1.215v-7.11h3.899v21.36H45.359z M45.27,13.405c0-0.64-0.03-1.23-0.09-1.77
		c-0.061-0.54-0.186-1.01-0.375-1.41c-0.19-0.4-0.461-0.715-0.811-0.945c-0.35-0.229-0.815-0.345-1.395-0.345
		c-0.581,0-1.046,0.115-1.396,0.345c-0.35,0.23-0.615,0.545-0.795,0.945s-0.3,0.87-0.36,1.41c-0.06,0.54-0.09,1.13-0.09,1.77
		c0,0.641,0.03,1.235,0.09,1.785c0.061,0.55,0.181,1.025,0.36,1.425c0.18,0.4,0.445,0.715,0.795,0.945s0.814,0.345,1.396,0.345
		c0.579,0,1.045-0.115,1.395-0.345s0.62-0.545,0.811-0.945c0.189-0.4,0.314-0.875,0.375-1.425
		C45.239,14.64,45.27,14.045,45.27,13.405z"/>
	<path fill="#FFFFFF" d="M61.26,21.235v-1.35c-0.521,0.521-1.065,0.9-1.635,1.14c-0.57,0.24-1.306,0.36-2.205,0.36
		c-1.74,0-3.07-0.46-3.99-1.38c-0.42-0.44-0.74-0.96-0.96-1.56c-0.221-0.6-0.33-1.25-0.33-1.95c0-0.62,0.109-1.205,0.33-1.755
		c0.22-0.55,0.55-1.03,0.99-1.44c0.439-0.41,0.994-0.735,1.665-0.975c0.669-0.24,1.454-0.36,2.354-0.36h3.69v-0.78
		c0-0.86-0.226-1.485-0.676-1.875c-0.449-0.39-1.195-0.585-2.234-0.585c-0.38,0-0.71,0.025-0.99,0.075
		c-0.28,0.05-0.535,0.125-0.765,0.225c-0.23,0.1-0.445,0.23-0.646,0.39s-0.4,0.36-0.6,0.6l-2.49-2.43
		c0.76-0.84,1.564-1.41,2.415-1.71c0.85-0.3,1.925-0.45,3.225-0.45c2.2,0,3.86,0.46,4.98,1.38c1.12,0.92,1.68,2.3,1.68,4.14v10.29
		H61.26z M61.17,14.635h-3.091c-0.7,0-1.24,0.155-1.619,0.465c-0.381,0.31-0.57,0.745-0.57,1.305c0,0.54,0.185,0.975,0.555,1.305
		s0.935,0.495,1.695,0.495c0.54,0,1-0.04,1.38-0.12c0.38-0.08,0.739-0.29,1.08-0.63c0.38-0.36,0.57-1.02,0.57-1.98V14.635z"/>
</g>
</svg>
